/* XPM */
static char * _xpm[] = {
"25 20 2 1",
" 	c None",
".	c #000000",
"           . .           ",
"           ...           ",
"            ..           ",
"       .    . .  .       ",
"       ..   . .  ..      ",
"       . .  ..   . .     ",
"   .   . .  . .  . .     ",
"   ..  ..   . .  ..      ",
"   . . . .  . .  . .     ",
"   . . . .  ..   . .     ",
"   ..  ..   .    ..     .",
"   .   .    .    .    .. ",
" ......................  ",
" . .. . . . . . . . ..   ",
"  ...................    ",
"    ................     ",
" ... ..  ..  .   ..  ... ",
".   .  .   .. ...  ...  .",
"  ...   ..  ...   ..  .. ",
" .   ...  ..   ...  ..  ."};
